<svg id="Layer_1" data-name="Layer 1" xmlns="http://www.w3.org/2000/svg" viewBox="0 0 1366 768"><defs><style>.cls-1{font-size:170px;font-family:DRAGONHUNTER, DRAGON HUNTER;}.cls-1,.cls-2{fill:#ff2400;}</style></defs><text id="GameGalaxy" class="cls-1" transform="translate(61.08 462.38)">FireGames</text><g id="Dragon"><path class="cls-2" d="M1250.06,375.9c16.9.18,27.28,1.24,27.28,1.24-10.73-6.7-29.74-16.37-46.29-23.07,6.51-.88,33.09-3.87,33.09-3.87s-20.06-10.21-55.09-14.61c31.15-5.28,65.83-12.85,65.83-12.85s-32.21-11.62-79.92-12.5c20.42-3.87,65-10.56,65-10.56s-22.36-6.86-61.26-4.4c4.93-6,41.72-30.1,41.72-30.1s-16-2.29-56.51,12.14c17.43-12.67,68.3-40.66,135.55-63.54-48.3-1.75-98.86,18-99.8,18.38,43.47-30.88,46-33.56,78.85-54.82-51.23,9-111.87,45.24-129.91,56.85,3.69-8.27,4.57-6.24,16-25-21.3,6.86-46.29,37.49-46.29,37.49s3.34-11,.44-17.16c-1.85,11.79-18,30.63-18,30.63s-14.17,15-21.74,30c-.88-3.43,1.15-14.61,1.15-14.61C1085.7,295.42,1085,310.76,1085,314a.62.62,0,0,0,.61.62l1.87.07-14.34,18.22a16.2,16.2,0,0,0-2.55-6.33,117.88,117.88,0,0,1-9.17,20.84c-6.41,2.92-11.08,4.77-13.19,19.29-3.08,25.61,4,40,4,40a13.18,13.18,0,0,0,3.44-5.63,57,57,0,0,0,5.54,1.49s10.39,8.81,18.49,7.84c-3.34-4.4-4.05-7.13-4.05-7.13,16.09.46,23.23-1.68,26.26-3.24a3.79,3.79,0,0,0,2-3.24c.15-4,2.16-14.3,17.66-22.74,19.71-10.74,28.57-4.17,28.57-4.17.24-12.32,3.64-17,3.64-17,42.6,40.85,18,117.13-27.47,167.47,66.55-81.68,34.51-153.85,34.51-153.85,7,54.57-64.08,130.62-142.59,163.36,176,21.82,260.71-91.19,260.71-91.19s-3-20.07-13.73-37.67c9.18,3.12,23.48,6.92,23.93,7A180.42,180.42,0,0,0,1250.06,375.9Zm-152.74-54.45c6.57-17.72,24.76-34.5,24.76-34.5C1122.55,305.26,1116.92,321.67,1097.32,321.45Z"/></g></svg>